<svg version="1.2" xmlns="http://www.w3.org/2000/svg" viewBox="0 0 1550 1389" width="1550" height="1389">
	<title>edf-colour-svg</title>
	<style>
		.s0 { fill: #fe5716 } 
	</style>
	<path id="Layer" fill-rule="evenodd" class="s0" d="m849.4 223.4c3.9 3.6 7.4 7.5 10.5 11.8 3.1 4.2 5.9 8.7 8.2 13.5 2.3 4.7 4.1 9.6 5.5 14.7-32.4 43.5-21.6 251.2-123.7 241.6-7.8 2.4-15.9 4.2-24 5.2-8.2 1-16.4 1.3-24.6 0.9-8.2-0.4-16.4-1.6-24.4-3.5-8-1.8-15.8-4.4-23.3-7.6l-16.2-24.7c-26.6-17.3-29.7-30.4-54.4-47.8l-70.9-104c1.6-10.8 5-21.2 5-32-30-47.3 9.3-129.8 38.6-162.9 34.7-39.7 70.9-89.4 133.7-97.9l48.6 13.9q18.7-3.9 37.4-8.2 18.7-4.3 37.2-9.1 18.6-4.9 37-10.2 18.4-5.3 36.7-11c13.9-5 48.2-12 55.1 6.1 11.6 29.7-61.2 18.9-71.3 65.1-33.1 29.7-27.7 92.9-33.1 136.4 4.4 2.9 8.6 6.1 12.4 9.7zm-848.7 400.6c27.8-35.1 23.5-96.3 84.8-97.9 7 13.5-1.5 5.8 15 11.2l5.8-10q3.4-4.3 5.9-9.2 2.6-4.8 4.3-10.1 1.7-5.2 2.4-10.6 0.7-5.4 0.5-10.9h26.2c2.7-55.1-0.3-74.8 18.9-97.5 0 1.9 6.6-5.8 6.6-3.8q2.7 3.3 5.1 7 2.3 3.6 4.3 7.5 1.9 3.9 3.4 8 1.5 4.1 2.6 8.3c19.6 53.5 94 179.1 158 187.6 67 44.7 220.8-63.2 231.2 64.3 33.9 60.5-72.4 135.2-103.3 150.6q-9.4 3-19 5.7-9.5 2.6-19.2 4.9-9.6 2.3-19.3 4.1-9.8 1.9-19.5 3.5c-166.5 43.1-393.5-98.3-394.7-212.7zm1149.2-135.2c185.4-28.5 381.2 15.8 399.3 208.8-26.6 29.6 3 56.2-53.2 65.1q-3.4 1.6-7 2.7-3.6 1.1-7.3 1.8-3.7 0.6-7.5 0.7-3.8 0.2-7.5-0.2-0.2 1.9-0.4 3.7-0.1 1.9-0.1 3.8 0 1.9 0.1 3.8 0.2 1.9 0.4 3.7-1.4 2.1-3.1 3.9-1.8 1.8-3.8 3.3-2 1.5-4.3 2.6-2.2 1.1-4.6 1.8-8.4 2.5-17 4.4-8.6 2-17.3 3.3-8.7 1.4-17.5 2.1-8.8 0.8-17.6 1c-58.9-9.3-31.2-12.7-69.7-2.7q-0.9-3.3-1.7-6.5-0.8-3.3-1.5-6.6-0.8-3.2-1.4-6.5-0.6-3.3-1.2-6.6c-41.2-102.1-252-94.4-373.8-85.6-3.6-2.8-6.9-6-9.9-9.5-2.9-3.5-5.5-7.3-7.7-11.3-2.1-4.1-3.9-8.3-5.2-12.7-1.4-4.4-2.2-8.9-2.7-13.5q-1-5.4-1.2-10.9-0.1-5.5 0.7-11 0.9-5.5 2.7-10.7 1.7-5.3 4.4-10.1 3.9-5.7 8.3-10.9 4.3-5.3 9.2-10.2 4.8-4.8 10.1-9.2 5.3-4.4 10.9-8.2c14.7-9.8 30-18.7 45.7-26.7 15.8-8 32-15.1 48.5-21.2 16.6-6.1 33.5-11.2 50.7-15.3 17.1-4.1 34.5-7.2 52.1-9.3zm247 804.4c-9.6 10.4-9.3 31.2-20.8 41.6-11.6 10.4-23.5 4.3-38.6 10.4-55.1 23.5-49.3 47.8-129.1 42-8.8-16.9-120.2-104.8-147.2-104.8-8.8 2-31.2-11.1-31.2-14.6 0-3.5-4.6-12.7-4.6-16.2 8.5-9.2 15-13.1 15-62.8-8.1-11.9 0.8-38.9-8.1-50.4-8.1 0-16.5-42.4-29.3-57.4-11.1-3.1-35-44.4-43.9-52.1-28.5-23.5-67.1-36.9-84-70.5 2.7 0 0-5 0-5 18.1-33.5 28.5-28.1 56.6-49.7 198.1 7 465.6 193 465.2 389.5zm-721.4-332.1c34.3 41.6 47.8 204.2 9.2 272.8q-7.2 11.9-15.2 23.2-8 11.3-16.8 22.1-8.8 10.7-18.3 20.8-9.6 10-19.8 19.4c-17.4 14.3-37 12.3-55.9 25.1-7.4 6.1-15.4 11.5-23.9 15.9-8.6 4.4-17.6 7.9-26.9 10.4-9.3 2.4-18.8 3.9-28.4 4.2-9.6 0.4-19.2-0.3-28.7-2l-52 3.4c-7.7-1.9-34.3-15.8-43.2-17.7l-47 3.5c-1.9-7-4.2-13.9-6.6-20.4l-38.5 2.3c-10.4-5-9.6-25.1-23.5-38.6-13.9-13.4-21.2-4.6-28.5-29.2 11.2-22.4-18.9-108.3-24.7-146.8-6.2-19.7-9.2-23.1-3.8-23.1 79.7 69.3 240 33.1 317.1-38.5q9.5-10.3 18.4-21.1 8.9-10.8 17.2-21.9 8.4-11.2 16.1-22.8 7.8-11.6 15-23.6c8.5-13.5 39.3-18.1 50.5-29.7 29.3-3.5 45.1-3.1 58.2 12.3z"/>
</svg>