<svg version="1.1" id="T-Systems_Logo" xmlns:x="ns_extend;" xmlns:i="ns_ai;" xmlns:graph="ns_graphs;" xmlns="http://www.w3.org/2000/svg" xmlns:xlink="http://www.w3.org/1999/xlink" x="0px" y="0px" viewBox="0 0 588.4 130" style="enable-background:new 0 0 588.4 130;" xml:space="preserve">
 <style type="text/css">
  .st0{fill:#E20074;}
 </style>
 <metadata>
  <sfw xmlns="ns_sfw;">
   <slices>
   </slices>
   <sliceSourceBounds bottomLeftOrigin="true" height="129" width="588.4" x="0" y="0.2">
   </sliceSourceBounds>
  </sfw>
 </metadata>
 <g>
  <path class="st0" d="M177.5,37.2c-4.2-20-12.4-30-24.5-30c-9.4,0-15,6.5-15,15.6c0,12.6,11.6,16.5,21.6,20.1
		c15.8,5.7,28.7,12.4,28.7,30.8c0,17.6-12.5,31.7-30.4,31.7c-11.5,0-21.1-6.5-25-9.8l-3.3,7.4H124V65.7h5.8
		c2.1,9.4,4.7,16.5,7.9,21.5c5,7.8,11.5,11.7,19.7,11.7c11,0,17.2-7.5,17.2-18.1c0-13.9-10.9-17.9-22.3-21.8
		C136.7,53.6,124.7,47,124.7,29c0-16.3,11.2-28.3,27.6-28.3c9.4,0,16.5,4.1,22.3,8.5l2.8-6.2h5.4v34.2H177.5z M221.6,103.8
		l-20.9-54.6c-3.2-8.3-4.4-9.7-8.6-9.7h-2.4v-5.8h33.5v5.8H218c-2.6,0-3.7,1-3.7,3c0.1,1.2,0.4,2.4,0.9,3.5l14.3,36.4l12-33.6
		c0.6-1.7,1-3.5,1.2-5.3c0-2.8-1.4-4.1-4.6-4.1h-5.2v-5.8H259v5.8h-2.5c-3,0-4.2,1.7-6.2,7l-23.1,62c-5.6,15-10.2,21.3-20.6,21.3
		c-7.9,0-15.1-5.1-15.1-13.5c0-5.4,3.6-9.6,9.2-9.6c4.9,0,8.9,3.3,8.9,8.3c0,3.6-1.7,6.2-5.2,8c0.9,0.3,1.8,0.4,2.8,0.4
		c5.7,0,8.9-3.9,13-15.5L221.6,103.8z M301.4,56.8c-3-12.7-8.9-19-17.6-19c-6,0-9.9,3.5-9.9,9.6c0,7.4,8.7,9.7,14.4,11.5
		c12,3.9,22.6,9.1,22.6,23.2c0,13.9-10.4,22.4-23.8,22.4c-7.1,0-13.9-2.6-19.4-7.1l-1.8,5.6h-5.1V76.4h5.1
		c3.2,10.4,8.4,22.2,21.2,22.2c6.7,0,11-4.6,11-11.2c0-8.8-8.9-11.8-15.8-14.1c-10.9-3.8-20.8-8.7-20.8-21.6
		c0-12.2,9.7-19.3,21.3-19.3c6.3,0.2,12.5,2.3,17.6,6l1.5-4.5h5.1v23L301.4,56.8z M361.3,85.9c0,11.8-6.8,18.6-18.6,18.6
		c-11.8,0-18.6-6.8-18.6-18.6V40.6h-10.7v-6c6.7-1.6,11.2-4.1,14-7.5c3-3.6,4.9-10.5,5.9-19.2h5.7v25.8h20.1v6.8H339v46.1
		c0,7.8,3.2,10.2,6.7,10.2c5.1,0,8.6-3.7,8.6-12.3v-6.9h7L361.3,85.9z M383.4,68.7c0.5,11.5,1,29.5,16,29.5c9.8,0,14.7-8.1,18.2-16
		l6,3.1c-5.7,11.5-12.6,19.8-26.5,19.8c-21.2,0-29.8-18.1-29.8-36.7c0-17.9,8.7-36.7,28.5-36.7c21.3,0,27.9,20.5,28.4,37H383.4z
		 M408,62.3c-0.3-16.7-4.4-24.5-11.9-24.5s-12,8.5-12.5,24.5H408z M523.6,52.3v37.8c0.1,5.2,2,7.3,7.3,7.3h2v5.7h-24.1V53.6
		c0-9.7-2.9-13.7-9.1-13.7c-7.8,0-11.5,9-11.5,21.5v28.7c0.1,5.2,2,7.3,7.3,7.3h2.4v5.7h-24.5V53.6c0-9.7-3-13.7-9.2-13.7
		c-8.1,0-11.5,9-11.5,21.5v28.7c0.1,5.2,2,7.3,7.3,7.3h2.4v5.7h-34.5v-5.7h2.7c5.2,0,7.3-2,7.3-7.3V46c-0.1-5.2-2-7.3-7.3-7.3h-2
		v-5.7h23.2v7.8c3.7-5.4,9.9-8.6,16.5-8.6c8.7,0,14.4,4,17.9,10.6c3.5-6.5,10.2-10.5,17.5-10.6C516.3,32.2,523.6,39.6,523.6,52.3z
		 M578.9,56.8c-3-12.7-8.9-19-17.6-19c-6,0-9.9,3.5-9.9,9.6c0,7.4,8.7,9.7,14.4,11.5c12,3.9,22.6,9.1,22.6,23.2
		c0,13.9-10.4,22.4-23.8,22.4c-7.1,0-13.9-2.6-19.4-7.1l-1.8,5.6h-5.1V76.4h5.1c3.2,10.4,8.4,22.2,21.2,22.2c6.7,0,11-4.6,11-11.2
		c0-8.8-8.9-11.8-15.8-14.1c-10.9-3.8-20.8-8.7-20.8-21.6c0-12.2,9.7-19.3,21.3-19.3c6.3,0.2,12.5,2.3,17.6,6l1.5-4.5h5.1v23
		L578.9,56.8z M20,69H0V49h20V69z M0,3v34h6v-1c0-16,9-26,26-26h1v72c0,10-4,14-14,14h-3v7h52v-7h-3c-10,0-14-4-14-14V10h1
		c17,0,26,10,26,26v1h6V3H0z M64,69h20V49H64V69z">
  </path>
 </g>
</svg>