<svg version="1.1" id="Calque_1" xmlns:x="ns_extend;" xmlns:i="ns_ai;" xmlns:graph="ns_graphs;" xmlns="http://www.w3.org/2000/svg" xmlns:xlink="http://www.w3.org/1999/xlink" x="0px" y="0px" viewBox="0 0 97.5 75" style="enable-background:new 0 0 97.5 75;" xml:space="preserve">
 <style type="text/css">
  .st0{fill:url(#SVGID_1_);}
	.st1{fill:#003DA5;}
 </style>
 <metadata>
  <sfw xmlns="ns_sfw;">
   <slices>
   </slices>
   <sliceSourceBounds bottomLeftOrigin="true" height="75" width="97.5" x="230.2" y="-167.2">
   </sliceSourceBounds>
  </sfw>
 </metadata>
 <g>
  <linearGradient id="SVGID_1_" gradientUnits="userSpaceOnUse" x1="13.1648" y1="-459.7967" x2="82.2087" y2="-495.6266" gradientTransform="matrix(1 0 0 -1 0 -440.7023)">
   <stop offset="8.636934e-04" style="stop-color:#FFEB00">
   </stop>
   <stop offset="0.8149" style="stop-color:#F8B11B">
   </stop>
  </linearGradient>
  <path class="st0" d="M33,74.9C21.5,74.4,9,69.8,3,59.2c-5.6-10-2.7-22.6,3.6-31.5C16.6,13.2,33.1,4.2,50.1,1
		c13-2.3,27.7-1.1,38.3,7.6c7.2,5.7,10.5,15.6,8.5,24.7C94.1,47.2,83.3,58,71.5,65C60,71.8,46.4,75.6,33,74.9z">
  </path>
  <g>
   <path class="st1" d="M28,24.1c2.2,0.8,9.2,3.3,13.1,6c0.1,0.1,0.4,0.3,0.4,0.3l29.3-0.5c0.1-0.1,1.1-2,1.8-3.2
			c0.7-1.4,0.7-2.5,0-3.3c-0.9-0.8-2.3-1-5.1-1H28.1c-0.3,0-1.1-0.1-1.2,0.6c0,0.2,0,0.4,0.2,0.6C27.3,23.9,27.6,24.1,28,24.1z">
   </path>
   <path class="st1" d="M86.8,31.6c-0.6,0-43.5,0.7-44.2,0.7c-0.4,0-0.5,0.1-0.5,0.5c0,3.1-4.1,6.2-9.7,8.9
			c-5.9,2.8-13.3,5.7-17.2,7.1c-0.9,0.3-2.6,0.9-3.1,1.2c-0.4,0.2-0.7,0.6-0.6,0.9c0.1,0.4,0.6,0.6,2,0.2c0.7-0.2,1.4-0.4,2.2-0.6
			c7.4-1.9,21-5.4,34.2-8.7c13.7-3.4,27.2-6.4,37-8.2c0.8-0.1,1.4-0.6,1.4-1.2C88.4,31.9,87.7,31.6,86.8,31.6z">
   </path>
   <path class="st1" d="M51.6,50.9c0,0,1.9,0.1,3.3-0.8c2.3-1.4,5.2-3.9,9.5-9.9L19.2,51.5L51.6,50.9z">
   </path>
  </g>
 </g>
</svg>