<svg version="1.2" xmlns="http://www.w3.org/2000/svg" viewBox="0 0 1552 1086" width="1552" height="1086">
	<title>logo_big_caap-svg</title>
	<style>
		.s0 { fill: #014f36 } 
		.s1 { fill: #018078 } 
		.s2 { fill: #ff0001 } 
	</style>
	<g id="Layer">
		<g id="Layer">
			<path id="Layer" class="s0" d="m16 958.2h1429.2v127.5h-1429.2z"/>
			<g id="Layer">
				<path id="Layer" class="s0" d="m925 261.6l96.4 241.5 170.4-90.1-147.3-327.6h-215.1l-302 562.7c0 0 148.2-4.7 243-76.5 24.7-12.7 92.4-190.5 154.6-310z"/>
				<path id="Layer" class="s1" d="m1191.8 413.8l-170.4 90.1c-145.8 74.9-284.4 140.3-359.3 161-196.8 56.6-436.6 90.8-522.6 14.3-81.3-71.7 105.9-373 459.6-440 57.4-12.7 90.9-9.5 90.9-8.7 0 0-23.9-102.8-43.1-124.4-26.2-32.6-52.5-39-90.8-34.2-76.4 4.7-402.3 91.6-530.5 362.6-71.7 154.7 23.9 310.1 85.2 355.5 28.7 20.7 213.5 186.5 641.3 19.2 421.4-164.2 799-421.7 799.8-421.7v-173c-0.8 0-166.5 95.7-360.1 199.3z"/>
				<path id="Layer" class="s0" d="m1081.1 660.1c15.9 36.7 61.4 145.1 72.5 176.2 15.1 34.2 52.6 34.2 52.6 33.4h196.8l-146.6-303.7c-53.4 30.3-112.4 62.2-175.3 94.1z"/>
			</g>
			<path id="Layer" class="s2" d="m1551.9 147.6c0 0-224.6 129.1-277.2 149-48.6 19.2-66.9-6.3-72.5-15.1-12.7-19.9-34.3-85.3-37.4-94.9 1.6 0 13.5 2.4 42.2-4.7 34.2-8.8 344.1-182.6 344.9-181.8z"/>
		</g>
	</g>
</svg>